<svg width="18" height="15" viewBox="0 0 18 15" fill="none" xmlns="http://www.w3.org/2000/svg">
<path d="M3.71143 7.37739C3.71143 7.14159 3.90971 6.94672 4.16698 6.91588L4.2385 6.91163L14.78 6.91163C15.0711 6.91163 15.3071 7.12016 15.3071 7.37739C15.3071 7.61318 15.1088 7.80805 14.8515 7.83889L14.78 7.84314L4.2385 7.84314C3.94741 7.84314 3.71143 7.63461 3.71143 7.37739Z" fill="#46A358"/>
<path d="M10.1566 3.96628C9.95037 3.78479 9.94965 3.48989 10.155 3.30761C10.3418 3.1419 10.6345 3.12631 10.8412 3.26121L10.9004 3.30619L15.1522 7.04712C15.3403 7.21261 15.3574 7.47226 15.2035 7.65488L15.1522 7.70719L10.9005 11.4487C10.6942 11.6302 10.3605 11.6296 10.1551 11.4474C9.96834 11.2817 9.95193 11.0229 10.1055 10.8408L10.1566 10.7887L14.0331 7.37698L10.1566 3.96628Z" fill="#46A358"/>
</svg>
