<svg width="18" height="15" viewBox="0 0 18 15" fill="none" xmlns="http://www.w3.org/2000/svg">
<path d="M3.71143 7.37751C3.71143 7.14172 3.90971 6.94685 4.16698 6.91601L4.2385 6.91175L14.78 6.91175C15.0711 6.91175 15.3071 7.12028 15.3071 7.37751C15.3071 7.6133 15.1088 7.80817 14.8515 7.83901L14.78 7.84326L4.2385 7.84326C3.94741 7.84326 3.71143 7.63474 3.71143 7.37751Z" fill="#3D3D3D"/>
<path d="M10.1566 3.9664C9.95037 3.78491 9.94965 3.49001 10.155 3.30773C10.3418 3.14202 10.6345 3.12643 10.8412 3.26133L10.9004 3.30631L15.1522 7.04724C15.3403 7.21273 15.3574 7.47238 15.2035 7.655L15.1522 7.70731L10.9005 11.4489C10.6942 11.6304 10.3605 11.6298 10.1551 11.4475C9.96834 11.2818 9.95193 11.023 10.1055 10.841L10.1566 10.7888L14.0331 7.3771L10.1566 3.9664Z" fill="#3D3D3D"/>
</svg>
